<svg xmlns="http://www.w3.org/2000/svg" id="Группа_18" width="29" height="25" data-name="Группа 18">
    <defs>
        <style>
            .cls-1,.cls-2,.cls-3{fill:none}.cls-2,.cls-3{stroke:#8792ac}.cls-2{stroke-width:2px}.cls-4,.cls-5{stroke:none}.cls-5{fill:#8792ac}
        </style>
    </defs>
    <g id="Фигура_930" class="cls-1" data-name="Фигура 930">
        <path d="M1208 746h-3v19a16.183 16.183 0 0115 1h1v-17s-2.449-7-13-7z" class="cls-4"
              transform="translate(-1205 -742)"/>
        <path d="M1210 744.099v3.9h-3v14.192a18.729 18.729 0 014.588-.577c2.58 0 5.065.537 7.412 1.6V749.41c-.22-.446-.783-1.43-1.886-2.429-.937-.85-2.063-1.529-3.347-2.02-1.134-.435-2.395-.723-3.767-.863m-2-2.099c10.55 0 13 7 13 7v17h-1c-3.014-1.828-5.95-2.386-8.412-2.386-3.88 0-6.588 1.386-6.588 1.386v-19h3v-4z"
              class="cls-5" transform="translate(-1205 -742)"/>
    </g>
    <path id="Фигура_931" d="M1209 747v13s7.494-.36 11 6" class="cls-2" data-name="Фигура 931"
          transform="translate(-1205 -742)"/>
    <g id="Фигура_930_копия" class="cls-1" data-name="Фигура 930 копия">
        <path d="M1231 745.959h3v18.8s-6.239-3.667-14 .99h-1v-16.821s1.449-6.928 12-6.928z" class="cls-4"
              transform="translate(-1205 -742)"/>
        <path d="M1229 744.099c-1.266.13-2.413.391-3.426.779-1.162.444-2.152 1.058-2.941 1.825-1.083 1.05-1.504 2.099-1.633 2.496v13.77c2.302-1.048 4.674-1.578 7.077-1.578 1.515 0 2.844.217 3.923.494v-13.926h-3V744.099m2-2.099v3.959h3v18.804s-2.334-1.372-5.923-1.372c-2.279 0-5.063.553-8.077 2.362h-1v-16.825s1.45-6.928 12-6.928z"
              class="cls-5" transform="translate(-1205 -742)"/>
    </g>
    <path id="Фигура_931_копия" d="M1231 746.948v12.866s-7.494-.357-11 5.938" class="cls-2" data-name="Фигура 931 копия"
          transform="translate(-1205 -742)"/>
    <g id="Группа_17" data-name="Группа 17" transform="translate(-1205 -742)">
        <path id="Фигура_932" d="M1211 746s4.158.5 6 3" class="cls-3" data-name="Фигура 932"/>
        <path id="Фигура_932_копия" d="M1211 749s4.158.495 6 3" class="cls-3" data-name="Фигура 932 копия"/>
        <path id="Фигура_932_копия_2" d="M1211 752s4.158.5 6 3" class="cls-3" data-name="Фигура 932 копия 2"/>
        <path id="Фигура_932_копия_3" d="M1211 755s4.158.495 6 3" class="cls-3" data-name="Фигура 932 копия 3"/>
    </g>
    <g id="Группа_16" data-name="Группа 16" transform="translate(-1205 -742)">
        <path id="Фигура_932_копия_4" d="M1227.942 746.508s-3.857.5-5.565 3.051" class="cls-3"
              data-name="Фигура 932 копия 4"/>
        <path id="Фигура_932_копия_4-2" d="M1227.942 749.56s-3.857.5-5.565 3.051" class="cls-3"
              data-name="Фигура 932 копия 4"/>
        <path id="Фигура_932_копия_4-3" d="M1227.942 752.611s-3.857.5-5.565 3.051" class="cls-3"
              data-name="Фигура 932 копия 4"/>
        <path id="Фигура_932_копия_4-4" d="M1227.942 755.663s-3.857.5-5.565 3.051" class="cls-3"
              data-name="Фигура 932 копия 4"/>
    </g>
</svg>