<svg id="Слой_1" data-name="Слой 1" xmlns="http://www.w3.org/2000/svg" viewBox="0 0 326 100.04"><defs><style>.cls-1{fill:#fff}</style></defs><path class="cls-1" d="M236.62 905.13l4.27-5.12c3 2.44 6.07 4 9.83 4 3 0 4.74-1.18 4.74-3.2 0-1.83-1.12-2.77-6.62-4.18-6.63-1.69-10.91-3.53-10.91-10.15 0-6 4.8-9.92 11.52-9.92a19.05 19.05 0 0112.22 4.18l-3.76 5.45c-2.92-2-5.78-3.24-8.56-3.24s-4.22 1.27-4.22 3c0 2.16 1.4 2.87 7.09 4.33 6.67 1.73 10.44 4.13 10.44 10 0 6.53-5 10.2-12.08 10.2a20.91 20.91 0 01-14-5.27" transform="translate(-150 -843.46)"/><path class="cls-1" d="M118.96 33.57h24.81v6.44h-17.62v6.67h15.51v6.44h-15.51v6.91h17.86v6.44h-25.05v-32.9z"/><path class="cls-1" d="M299 893.48a16.73 16.73 0 0117.15-17 16.54 16.54 0 0112.74 5.36l-4.32 5c-2.54-2.3-4.7-3.66-8.46-3.66-5.55 0-9.54 4.6-9.54 10.34s3.9 10.34 9.54 10.34c3.76 0 6.06-1.51 8.65-3.86l4.6 4.94c-3.38 3.62-7.14 5.59-13.49 5.59a16.62 16.62 0 01-16.87-17M334.62 895.83V877h7.24v18.61c0 5.36 2.68 8.13 7.09 8.13s7.1-2.68 7.1-7.89V877h7.24v18.56c0 10-5.6 14.85-14.43 14.85s-14.24-4.93-14.24-14.61M370.67 877h15c4.18 0 7.42 1.17 9.59 3.34a10.39 10.39 0 012.82 7.61 10.22 10.22 0 01-7.05 10.2l8 11.75h-8.46l-7.07-10.5h-5.59v10.53h-7.24zm14.57 16c3.52 0 5.54-1.88 5.54-4.75 0-3.1-2.16-4.7-5.68-4.7h-7.19V893z" transform="translate(-150 -843.46)"/><path class="cls-1" d="M254.65 33.57h24.82v6.44h-17.63v6.67h15.51v6.44h-15.51v6.91h17.86v6.44h-25.05v-32.9zM284.55 48.47h14.48v6.86h-14.48zM308.75 40.25h-10.01v-6.68H326v6.68h-10.01v26.22h-7.24V40.25z"/><path class="cls-1" d="M157 870.09v-9.72a10 10 0 0110-10h9.71v-6.95H167a16.94 16.94 0 00-17 16.95v9.72zM157 926.58v-9.71h-7v9.71a16.94 16.94 0 0016.92 16.92h9.71v-7h-9.71a10 10 0 01-10-10M243.09 860.37v9.72H250v-9.72a16.93 16.93 0 00-16.91-16.91h-9.72v6.95h9.72a10 10 0 0110 10M243.09 916.87v9.71a10 10 0 01-10 10h-9.72v7h9.72a16.94 16.94 0 0016.91-17v-9.71z" transform="translate(-150 -843.46)"/><path class="cls-1" d="M47.6 54.38l-9.39 7.17-4.07-6.98 10.85-4.55-10.85-4.55 4.07-6.97 9.39 7.16-1.55-11.62h7.94l-1.55 11.62 9.4-7.16 4.06 6.97-10.84 4.55 10.84 4.55-4.06 6.98-9.4-7.17L53.99 66h-7.94l1.55-11.62z"/></svg>