<svg id="Группа_1" data-name="Группа 1" xmlns="http://www.w3.org/2000/svg" width="25" height="25" viewBox="0 0 25 25">
  <defs>
    <style>
      .cls-1 {
        fill: none;
      }

      .cls-2, .cls-3 {
        stroke: none;
      }

      .cls-3 {
        fill: #8792ac;
      }
    </style>
  </defs>
  <g id="Эллипс_1" data-name="Эллипс 1" class="cls-1" transform="translate(-1339 -739)">
    <path class="cls-2" d="M1363,752a12,12,0,1,1-12-12c-.028,0,0,12,0,12S1363,752.27,1363,752Z"/>
    <path class="cls-3" d="M 1351 761.9998779296875 C 1355.787719726562 761.9998779296875 1359.800415039062 758.6176147460938 1360.7744140625 754.1171264648438 C 1360.501831054688 754.1190795898438 1360.206420898438 754.1200561523438 1359.888916015625 754.1200561523438 C 1356.351684570312 754.1200561523438 1351.008544921875 754.0006713867188 1350.954956054688 753.9994506835938 L 1349.004638671875 753.95556640625 L 1349 752.0046997070312 C 1349 751.9747924804688 1348.992919921875 748.976318359375 1348.989379882812 746.0128784179688 C 1348.987548828125 744.4497680664062 1348.986938476562 743.170654296875 1348.98779296875 742.2033081054688 C 1344.4345703125 743.136962890625 1340.999877929688 747.1748657226562 1340.999877929688 752 C 1340.999877929688 757.513916015625 1345.485961914062 761.9998779296875 1351 761.9998779296875 M 1351 763.9998779296875 C 1344.37255859375 763.9998779296875 1338.999877929688 758.6273193359375 1338.999877929688 752 C 1338.999877929688 745.3724975585938 1344.37255859375 739.9998779296875 1351 739.9998779296875 C 1350.9716796875 739.9998779296875 1351 752 1351 752 C 1351 752 1356.333374023438 752.1199951171875 1359.888916015625 752.1200561523438 C 1361.6669921875 752.1200561523438 1363 752.0900268554688 1363 752 C 1363 758.6273193359375 1357.62744140625 763.9998779296875 1351 763.9998779296875 Z"/>
  </g>
  <g id="Фигура_1" data-name="Фигура 1" class="cls-1" transform="translate(-1339 -739)">
    <path class="cls-2" d="M1353,739v11h11S1363.113,739,1353,739Z"/>
    <path class="cls-3" d="M 1354.999877929688 741.1895751953125 L 1354.999877929688 747.9998779296875 L 1361.562133789062 747.9998779296875 C 1361.339721679688 747.2318115234375 1361.01171875 746.3370971679688 1360.532836914062 745.4506225585938 C 1359.82275390625 744.136474609375 1358.921752929688 743.099609375 1357.854858398438 742.3687133789062 C 1357.021118164062 741.7975463867188 1356.065795898438 741.4034423828125 1354.999877929688 741.1895751953125 M 1352.999877929688 739 C 1363.11328125 739 1363.999877929688 749.9998779296875 1363.999877929688 749.9998779296875 L 1352.999877929688 749.9998779296875 L 1352.999877929688 739 Z"/>
  </g>
</svg>
