<svg xmlns="http://www.w3.org/2000/svg" xmlns:xlink="http://www.w3.org/1999/xlink" width="25" height="25" viewBox="0 0 25 25">
  <defs>
    <style>
      .cls-1 {
        fill: none;
      }

      .cls-2 {
        opacity: 0.3;
        mix-blend-mode: overlay;
        isolation: isolate;
        fill: url(#linear-gradient);
      }

      .cls-3, .cls-4 {
        stroke: none;
      }

      .cls-4 {
        fill: #72b431;
      }
    </style>
    <linearGradient id="linear-gradient" x1="0.5" y1="1" x2="0.5" gradientUnits="objectBoundingBox">
      <stop offset="0" stop-color="#12100b"/>
      <stop offset="1" stop-color="#fff"/>
    </linearGradient>
  </defs>
  <g id="Группа_1" data-name="Группа 1" transform="translate(-30 -93)">
    <g id="Группа_1-2" data-name="Группа 1" transform="translate(30 93)">
      <g id="Группа_1-3" data-name="Группа 1">
        <g id="Эллипс_1" data-name="Эллипс 1" class="cls-1">
          <path class="cls-3" d="M24,13A12,12,0,1,1,12,1c-.028,0,0,12,0,12S24,13.27,24,13Z"/>
          <path class="cls-4" d="M 9.987747192382812 3.203413009643555 C 5.434675216674805 4.137081146240234 2 8.17491340637207 2 13 C 2 18.51399993896484 6.486000061035156 23 12 23 C 16.78772926330566 23 20.80046844482422 19.61772346496582 21.77446365356445 15.11721801757812 C 21.50182151794434 15.119140625 21.20638847351074 15.12010478973389 20.88889503479004 15.12010478973389 C 17.35173797607422 15.12010478973389 12.00852584838867 15.00068378448486 11.95494747161865 14.99947357177734 L 10.00463199615479 14.95557880401611 L 10 13.00473690032959 C 9.999947547912598 12.9747896194458 9.992895126342773 9.976316452026367 9.989420890808105 7.012947082519531 C 9.987531661987305 5.449865341186523 9.986998558044434 4.170778274536133 9.987747192382812 3.203413009643555 M 12 1 C 11.97168445587158 1 12 13 12 13 C 12 13 17.33333396911621 13.12009334564209 20.88888931274414 13.12009334564209 C 22.6669921875 13.12009334564209 24 13.09008121490479 24 13 C 24 19.62742042541504 18.62742042541504 25 12 25 C 5.372579574584961 25 0 19.62742042541504 0 13 C 0 6.372579574584961 5.372579574584961 1 12 1 Z"/>
        </g>
        <g id="Фигура_1" data-name="Фигура 1" class="cls-1">
          <path class="cls-3" d="M14,0V11H25S24.113,0,14,0Z"/>
          <path class="cls-4" d="M 16 2.1895751953125 L 16 9 L 22.56210899353027 9 C 22.33123207092285 8.202659606933594 21.98679733276367 7.269214153289795 21.4778995513916 6.350150108337402 C 20.76515007019043 5.062950134277344 19.86540031433105 4.048099994659424 18.80374908447266 3.333899974822998 C 17.98258018493652 2.781522750854492 17.04426956176758 2.399052619934082 16 2.1895751953125 M 14 0 C 24.11330032348633 0 25 11 25 11 L 14 11 L 14 0 Z"/>
        </g>
      </g>
    </g>
    <path id="Gradient_Overlay" data-name="Gradient Overlay" class="cls-2" d="M30,106A12,12,0,0,1,42,94c-.028,0,0,12,0,12s12,.271,12,0a12,12,0,1,1-24,0Zm14-2V93c10.113,0,11,11,11,11Z"/>
  </g>
</svg>
